<svg xmlns="http://www.w3.org/2000/svg" xmlns:xlink="http://www.w3.org/1999/xlink" width="152" zoomAndPan="magnify" viewBox="0 0 114 113.999999" height="152" preserveAspectRatio="xMidYMid meet" version="1.0"><defs><g/><clipPath id="id1"><path d="M 37.515625 32 L 70 32 L 70 88.574219 L 37.515625 88.574219 Z M 37.515625 32 " clip-rule="nonzero"/></clipPath><clipPath id="id2"><path d="M 37.515625 31.5625 L 70.433594 31.5625 L 70.433594 88.574219 L 37.515625 88.574219 Z M 37.515625 31.5625 " clip-rule="nonzero"/></clipPath><clipPath id="id3"><path d="M 37.515625 32 L 70 32 L 70 51 L 37.515625 51 Z M 37.515625 32 " clip-rule="nonzero"/></clipPath><clipPath id="id4"><path d="M 37.515625 31.5625 L 70.433594 31.5625 L 70.433594 52 L 37.515625 52 Z M 37.515625 31.5625 " clip-rule="nonzero"/></clipPath><clipPath id="id5"><path d="M 30.308594 6.308594 L 77.777344 6.308594 L 77.777344 47.339844 L 30.308594 47.339844 Z M 30.308594 6.308594 " clip-rule="nonzero"/></clipPath></defs><g clip-path="url(#id1)"><path fill="#fefff3" d="M 69.984375 84.558594 C 69.984375 86.511719 68.398438 88.09375 66.441406 88.09375 L 41.503906 88.09375 C 39.546875 88.09375 37.960938 86.511719 37.960938 84.558594 L 37.960938 35.566406 C 37.960938 33.613281 39.546875 32.027344 41.503906 32.027344 L 66.441406 32.027344 C 68.398438 32.027344 69.984375 33.613281 69.984375 35.566406 L 69.984375 84.558594 " fill-opacity="1" fill-rule="nonzero"/></g><g clip-path="url(#id2)"><path fill="#577590" d="M 69.984375 84.558594 L 69.539062 84.558594 C 69.539062 85.414062 69.195312 86.183594 68.632812 86.742188 C 68.070312 87.304688 67.296875 87.648438 66.441406 87.648438 L 41.503906 87.648438 C 40.648438 87.648438 39.875 87.304688 39.3125 86.742188 C 38.753906 86.183594 38.40625 85.414062 38.40625 84.558594 L 38.40625 35.566406 C 38.40625 34.710938 38.753906 33.941406 39.3125 33.378906 C 39.875 32.820312 40.648438 32.472656 41.503906 32.472656 L 66.441406 32.472656 C 67.296875 32.472656 68.070312 32.820312 68.632812 33.378906 C 69.195312 33.941406 69.539062 34.710938 69.539062 35.566406 L 69.539062 84.558594 L 70.429688 84.558594 L 70.429688 35.566406 C 70.429688 34.46875 69.984375 33.46875 69.261719 32.75 C 68.542969 32.03125 67.542969 31.585938 66.441406 31.585938 L 41.503906 31.585938 C 40.40625 31.585938 39.40625 32.03125 38.683594 32.75 C 37.964844 33.46875 37.515625 34.46875 37.515625 35.566406 L 37.515625 84.558594 C 37.515625 85.65625 37.964844 86.652344 38.683594 87.371094 C 39.40625 88.089844 40.40625 88.539062 41.503906 88.539062 L 66.441406 88.539062 C 67.542969 88.539062 68.542969 88.089844 69.261719 87.371094 C 69.984375 86.652344 70.429688 85.65625 70.429688 84.558594 L 69.984375 84.558594 " fill-opacity="1" fill-rule="nonzero"/></g><g clip-path="url(#id3)"><path fill="#fefff3" d="M 66.441406 32.027344 L 41.503906 32.027344 C 39.546875 32.027344 37.960938 33.613281 37.960938 35.566406 L 37.960938 50.699219 L 69.984375 50.699219 L 69.984375 35.566406 C 69.984375 33.613281 68.398438 32.027344 66.441406 32.027344 " fill-opacity="1" fill-rule="nonzero"/></g><g clip-path="url(#id4)"><path fill="#577590" d="M 66.441406 32.027344 L 66.441406 31.585938 L 41.503906 31.585938 C 40.40625 31.585938 39.40625 32.03125 38.683594 32.75 C 37.964844 33.46875 37.515625 34.46875 37.515625 35.566406 L 37.515625 50.699219 C 37.515625 50.816406 37.5625 50.929688 37.648438 51.011719 C 37.730469 51.09375 37.84375 51.140625 37.960938 51.140625 L 69.984375 51.140625 C 70.105469 51.140625 70.214844 51.097656 70.300781 51.011719 C 70.382812 50.929688 70.429688 50.816406 70.429688 50.699219 L 70.429688 35.566406 C 70.429688 34.46875 69.984375 33.46875 69.261719 32.75 C 68.542969 32.03125 67.542969 31.585938 66.441406 31.585938 L 66.441406 32.472656 C 67.296875 32.472656 68.070312 32.820312 68.632812 33.378906 C 69.195312 33.941406 69.539062 34.710938 69.539062 35.566406 L 69.539062 50.253906 L 38.40625 50.253906 L 38.40625 35.566406 C 38.40625 34.710938 38.753906 33.941406 39.3125 33.378906 C 39.875 32.820312 40.648438 32.472656 41.503906 32.472656 L 66.441406 32.472656 L 66.441406 32.027344 " fill-opacity="1" fill-rule="nonzero"/></g><path fill="#fefff3" d="M 43.738281 67.742188 C 43.738281 68.507812 43.117188 69.128906 42.347656 69.128906 C 41.578125 69.128906 40.953125 68.507812 40.953125 67.742188 L 40.953125 56.625 C 40.953125 55.855469 41.578125 55.234375 42.347656 55.234375 C 43.117188 55.234375 43.738281 55.855469 43.738281 56.625 L 43.738281 67.742188 " fill-opacity="1" fill-rule="nonzero"/><path fill="#577590" d="M 43.738281 67.742188 L 43.292969 67.742188 C 43.292969 68.003906 43.191406 68.234375 43.015625 68.410156 C 42.84375 68.582031 42.609375 68.6875 42.347656 68.6875 C 42.085938 68.6875 41.851562 68.582031 41.675781 68.410156 C 41.503906 68.234375 41.398438 68.003906 41.398438 67.742188 L 41.398438 56.625 C 41.398438 56.363281 41.503906 56.128906 41.675781 55.957031 C 41.851562 55.785156 42.082031 55.679688 42.347656 55.679688 C 42.609375 55.679688 42.84375 55.785156 43.015625 55.957031 C 43.191406 56.128906 43.292969 56.363281 43.292969 56.625 L 43.292969 67.742188 L 44.183594 67.742188 L 44.183594 56.625 C 44.183594 56.121094 43.976562 55.65625 43.644531 55.328125 C 43.316406 54.996094 42.851562 54.789062 42.347656 54.792969 C 41.839844 54.789062 41.378906 54.996094 41.046875 55.328125 C 40.714844 55.65625 40.507812 56.121094 40.511719 56.625 L 40.511719 67.742188 C 40.507812 68.246094 40.714844 68.707031 41.046875 69.035156 C 41.378906 69.367188 41.839844 69.574219 42.347656 69.574219 C 42.851562 69.574219 43.316406 69.367188 43.644531 69.035156 C 43.976562 68.707031 44.183594 68.246094 44.183594 67.742188 L 43.738281 67.742188 " fill-opacity="1" fill-rule="nonzero"/><path fill="#fefff3" d="M 43.738281 45.714844 C 43.738281 46.484375 43.117188 47.105469 42.347656 47.105469 C 41.578125 47.105469 40.953125 46.484375 40.953125 45.714844 L 40.953125 39.140625 C 40.953125 38.375 41.578125 37.75 42.347656 37.75 C 43.117188 37.75 43.738281 38.375 43.738281 39.140625 L 43.738281 45.714844 " fill-opacity="1" fill-rule="nonzero"/><path fill="#577590" d="M 43.738281 45.714844 L 43.292969 45.714844 C 43.292969 45.980469 43.191406 46.210938 43.015625 46.386719 C 42.84375 46.558594 42.609375 46.660156 42.347656 46.664062 C 42.082031 46.660156 41.851562 46.558594 41.675781 46.386719 C 41.503906 46.210938 41.398438 45.980469 41.398438 45.714844 L 41.398438 39.140625 C 41.398438 38.878906 41.503906 38.644531 41.675781 38.472656 C 41.851562 38.300781 42.082031 38.195312 42.347656 38.195312 C 42.609375 38.195312 42.84375 38.300781 43.015625 38.472656 C 43.191406 38.644531 43.292969 38.878906 43.292969 39.140625 L 43.292969 45.714844 L 44.183594 45.714844 L 44.183594 39.140625 C 44.183594 38.636719 43.976562 38.175781 43.644531 37.84375 C 43.316406 37.511719 42.851562 37.308594 42.347656 37.308594 C 41.839844 37.308594 41.378906 37.511719 41.046875 37.84375 C 40.714844 38.175781 40.507812 38.636719 40.511719 39.140625 L 40.511719 45.714844 C 40.507812 46.222656 40.714844 46.683594 41.046875 47.011719 C 41.378906 47.34375 41.839844 47.550781 42.347656 47.550781 C 42.851562 47.550781 43.316406 47.34375 43.644531 47.011719 C 43.976562 46.683594 44.183594 46.222656 44.183594 45.714844 L 43.738281 45.714844 " fill-opacity="1" fill-rule="nonzero"/><path fill="#165d94" d="M 75.230469 17.050781 C 75.46875 17.589844 75.609375 18.03125 75.671875 18.4375 C 75.535156 18.875 74.941406 20.722656 74.65625 21.636719 L 74.441406 22.3125 C 74.011719 23.664062 73.214844 26.1875 72.992188 26.914062 C 72.675781 27.929688 71.546875 31.566406 71.304688 32.371094 L 70.933594 33.601562 C 70.738281 33.496094 70.535156 33.386719 70.3125 33.273438 C 69.625 32.933594 68.90625 32.628906 68.125 32.339844 C 69.15625 26.175781 71.382812 22.582031 71.402344 22.546875 L 70.828125 21.96875 C 70.738281 22.023438 68.574219 23.429688 66.296875 31.75 C 65.378906 31.484375 64.378906 31.242188 63.273438 31.015625 C 63.417969 28.402344 64.066406 18.886719 64.507812 17.042969 L 63.710938 16.785156 C 63.257812 17.882812 62.082031 21.460938 60.878906 31.023438 L 61.058594 31.042969 L 61.054688 31.070312 L 60.875 31.054688 C 60.863281 31.203125 60.910156 31.308594 60.984375 31.382812 L 60.96875 31.4375 L 61.132812 31.488281 C 61.234375 31.53125 61.339844 31.554688 61.398438 31.566406 C 61.695312 31.652344 61.988281 31.738281 62.28125 31.824219 C 64.003906 32.351562 65.578125 32.957031 66.964844 33.628906 C 67.796875 34.035156 68.503906 34.421875 69.128906 34.816406 C 69.578125 35.097656 70.082031 35.433594 70.519531 35.832031 C 70.429688 36.574219 70.339844 37.3125 70.257812 38.050781 C 70.0625 39.714844 69.875 41.378906 69.6875 43.042969 C 69.628906 43.585938 69.570312 44.132812 69.519531 44.679688 L 67.347656 43.683594 C 64.636719 42.777344 62.089844 42.160156 59.558594 41.796875 C 57.652344 41.527344 55.710938 41.386719 53.789062 41.386719 C 53.335938 41.386719 52.882812 41.394531 52.425781 41.410156 C 49.863281 41.496094 47.304688 41.847656 44.816406 42.457031 C 43.480469 42.785156 42.164062 43.1875 40.902344 43.660156 C 40.261719 43.902344 39.6875 44.136719 39.15625 44.375 L 38.917969 42.707031 C 39.457031 42.398438 40.070312 42.097656 40.824219 41.78125 C 41.667969 41.421875 46.128906 40.078125 47.453125 39.851562 C 48.933594 39.597656 50.28125 39.453125 51.578125 39.398438 C 52.132812 39.375 52.695312 39.363281 53.246094 39.363281 C 54.09375 39.363281 54.953125 39.390625 55.796875 39.445312 C 57.054688 39.523438 58.402344 39.695312 59.914062 39.960938 C 61.289062 40.199219 62.582031 40.5 63.761719 40.851562 C 64.570312 41.085938 65.414062 41.355469 66.496094 41.714844 L 66.777344 40.925781 C 65.21875 40.34375 63.554688 39.734375 61.835938 39.300781 C 60.527344 38.96875 59.128906 38.628906 57.695312 38.429688 C 56.421875 38.253906 54.917969 38.066406 53.417969 38.019531 C 52.96875 38.003906 52.519531 37.996094 52.070312 37.996094 C 49.574219 37.996094 47.164062 38.230469 44.898438 38.699219 C 43.328125 39.046875 42.058594 39.398438 40.886719 39.8125 C 40.007812 40.121094 39.273438 40.414062 38.632812 40.71875 C 38.425781 39.308594 37.921875 35.867188 37.765625 34.808594 C 38.273438 34.519531 39.410156 33.90625 39.855469 33.707031 C 40.429688 33.449219 42.957031 32.605469 43.585938 32.449219 C 44.269531 32.277344 46.992188 31.746094 47.671875 31.640625 C 49.039062 31.429688 50.4375 31.316406 51.75 31.230469 C 52.304688 31.191406 53.035156 31.15625 53.566406 31.132812 C 54.527344 31.085938 54.699219 31.078125 54.695312 30.671875 L 54.671875 30.265625 L 54.621094 30.265625 L 53.636719 23.054688 L 52.800781 23.109375 L 52.800781 30.214844 C 52.589844 30.210938 52.378906 30.207031 52.164062 30.207031 L 51.859375 30.210938 C 50.507812 30.226562 49.28125 30.246094 48.050781 30.34375 C 47.125 22.945312 46.21875 20.121094 45.851562 19.222656 C 45.804688 19.039062 45.695312 18.671875 45.328125 18.671875 L 44.621094 18.675781 L 44.964844 19.296875 C 44.972656 19.308594 45 19.367188 45.050781 19.480469 C 45.335938 20.714844 45.695312 26.125 45.929688 30.574219 C 45.222656 30.683594 43.777344 30.914062 43.070312 31.035156 C 40.328125 20.53125 37.675781 18.800781 37.558594 18.734375 L 36.980469 19.304688 C 39.179688 23.03125 40.519531 29.214844 40.96875 31.542969 C 40.5 31.679688 39.996094 31.839844 39.410156 32.035156 C 38.929688 32.195312 37.871094 32.679688 37.253906 32.972656 L 35.367188 27.234375 C 35.222656 26.789062 34.199219 23.707031 33.832031 22.613281 L 32.503906 18.617188 C 32.664062 18.027344 33.574219 15.214844 36.917969 12.71875 C 37.601562 12.207031 38.421875 11.78125 39.214844 11.367188 L 39.5625 11.1875 C 40.683594 10.601562 41.828125 10.109375 42.972656 9.730469 C 44.414062 9.246094 46 8.886719 47.675781 8.660156 C 49.394531 8.429688 51.285156 8.316406 53.464844 8.316406 C 54.117188 8.316406 54.769531 8.328125 55.421875 8.34375 C 56.320312 8.363281 57.234375 8.410156 58.121094 8.449219 L 58.382812 8.464844 C 59.507812 8.527344 60.5 8.621094 61.417969 8.753906 C 62.179688 8.867188 62.863281 9.007812 63.5 9.179688 C 66.011719 9.855469 68.113281 10.6875 69.933594 11.726562 C 70.492188 12.050781 71.023438 12.390625 71.515625 12.746094 C 72.652344 13.566406 73.578125 14.464844 74.273438 15.417969 C 74.664062 15.949219 74.984375 16.5 75.230469 17.050781 Z M 75.230469 17.050781 " fill-opacity="1" fill-rule="nonzero"/><path fill="#549bea" d="M 69.519531 44.679688 L 70.117188 44.953125 L 69.867188 45.75 C 69.761719 45.722656 69.617188 45.671875 69.445312 45.605469 L 69.445312 45.375 L 69.464844 45.199219 C 69.484375 45.023438 69.5 44.855469 69.519531 44.679688 Z M 69.519531 44.679688 " fill-opacity="1" fill-rule="nonzero"/><g clip-path="url(#id5)"><path fill="#549bea" d="M 45.050781 19.480469 C 45 19.367188 44.972656 19.308594 44.964844 19.296875 L 44.621094 18.675781 L 45.328125 18.671875 C 45.695312 18.671875 45.804688 19.039062 45.851562 19.222656 C 46.21875 20.121094 47.125 22.945312 48.050781 30.347656 C 49.28125 30.246094 50.507812 30.226562 51.859375 30.210938 L 52.164062 30.207031 C 52.378906 30.207031 52.589844 30.210938 52.800781 30.214844 L 52.800781 23.109375 L 53.636719 23.054688 L 54.621094 30.265625 L 54.671875 30.265625 L 54.695312 30.671875 C 54.699219 31.078125 54.527344 31.085938 53.566406 31.132812 C 53.035156 31.15625 52.304688 31.191406 51.75 31.230469 C 50.4375 31.316406 49.039062 31.429688 47.671875 31.640625 C 46.992188 31.746094 44.269531 32.277344 43.585938 32.449219 C 42.957031 32.605469 40.429688 33.449219 39.855469 33.707031 C 39.410156 33.90625 38.273438 34.519531 37.765625 34.808594 C 37.921875 35.867188 38.425781 39.308594 38.632812 40.71875 C 39.273438 40.414062 40.007812 40.121094 40.886719 39.8125 C 42.058594 39.398438 43.328125 39.046875 44.898438 38.699219 C 47.164062 38.230469 49.574219 37.996094 52.070312 37.996094 C 52.519531 37.996094 52.96875 38.003906 53.417969 38.019531 C 54.917969 38.066406 56.421875 38.253906 57.695312 38.429688 C 59.128906 38.628906 60.527344 38.96875 61.835938 39.300781 C 63.554688 39.734375 65.21875 40.34375 66.777344 40.925781 L 66.496094 41.714844 C 65.414062 41.355469 64.570312 41.085938 63.761719 40.851562 C 62.582031 40.5 61.289062 40.199219 59.914062 39.960938 C 58.402344 39.695312 57.054688 39.523438 55.796875 39.445312 C 54.953125 39.390625 54.09375 39.363281 53.246094 39.363281 C 52.695312 39.363281 52.132812 39.375 51.578125 39.398438 C 50.28125 39.453125 48.933594 39.597656 47.453125 39.851562 C 46.128906 40.078125 41.667969 41.421875 40.824219 41.78125 C 40.070312 42.097656 39.457031 42.398438 38.917969 42.707031 L 39.15625 44.375 C 39.6875 44.136719 40.261719 43.902344 40.902344 43.660156 C 42.164062 43.1875 43.480469 42.785156 44.816406 42.457031 C 47.304688 41.847656 49.863281 41.496094 52.425781 41.410156 C 52.882812 41.394531 53.335938 41.386719 53.789062 41.386719 C 55.710938 41.386719 57.652344 41.527344 59.558594 41.796875 C 62.089844 42.160156 64.636719 42.777344 67.347656 43.683594 L 69.519531 44.679688 C 69.5 44.855469 69.484375 45.023438 69.464844 45.199219 L 69.445312 45.375 L 69.445312 45.605469 C 68.285156 45.179688 65.820312 44.136719 64.96875 43.917969 C 63.667969 43.585938 62.332031 43.320312 60.996094 43.132812 C 59.871094 42.972656 58.390625 42.785156 56.886719 42.738281 C 56.761719 42.734375 56.613281 42.734375 56.441406 42.734375 C 54.773438 42.734375 51.324219 42.886719 50.660156 42.976562 C 49.136719 43.179688 47.800781 43.417969 46.570312 43.714844 C 45.113281 44.0625 43.660156 44.628906 42.253906 45.179688 L 41.660156 45.410156 C 40.660156 45.796875 38.679688 46.765625 38.484375 47.132812 C 38.5 47.105469 38.515625 47.019531 38.464844 46.933594 L 37.738281 47.347656 C 36.980469 46.015625 36.925781 44.503906 36.871094 43.042969 C 36.851562 42.449219 36.832031 41.886719 36.769531 41.34375 C 36.621094 40.097656 36.398438 38.832031 36.1875 37.605469 C 36.03125 36.699219 35.863281 35.765625 35.730469 34.839844 C 35.667969 34.589844 34.167969 29.976562 33.601562 28.238281 L 33.394531 27.609375 C 33.257812 27.183594 32.242188 24.023438 31.871094 22.863281 C 31.683594 22.28125 30.886719 19.792969 30.617188 18.796875 L 30.402344 18.753906 L 30.476562 18.34375 C 30.492188 18.257812 30.824219 17.132812 30.867188 16.996094 C 31.089844 16.359375 31.394531 15.714844 31.78125 15.09375 C 32.695312 13.597656 34.015625 12.25 35.703125 11.085938 C 38.171875 9.242188 41.320312 7.902344 45.050781 7.109375 C 45.988281 6.914062 46.976562 6.75 47.988281 6.628906 C 49.765625 6.417969 51.632812 6.308594 53.542969 6.308594 C 54.320312 6.308594 55.121094 6.328125 55.921875 6.363281 C 56.765625 6.398438 57.554688 6.449219 58.324219 6.511719 C 61.34375 6.757812 64.023438 7.269531 66.527344 8.070312 C 68.953125 8.851562 71.101562 9.917969 72.90625 11.253906 C 75.394531 13.085938 77.058594 15.402344 77.582031 17.757812 C 77.648438 18.042969 77.683594 18.277344 77.695312 18.496094 C 77.707031 18.65625 77.667969 18.773438 77.632812 18.882812 C 77.558594 19.117188 76.398438 22.570312 76.117188 23.40625 C 75.738281 24.523438 74.457031 28.296875 74.191406 29.0625 C 73.851562 30.050781 72.558594 33.773438 72.226562 34.730469 C 72.054688 35.722656 71.421875 39.414062 71.261719 40.347656 C 71.027344 41.703125 70.765625 43.132812 70.417969 44.980469 L 70.261719 45.816406 L 69.441406 45.859375 L 69.445312 45.605469 C 69.617188 45.671875 69.761719 45.722656 69.867188 45.75 L 70.117188 44.953125 L 69.519531 44.679688 C 69.570312 44.132812 69.628906 43.585938 69.6875 43.042969 C 69.875 41.378906 70.0625 39.714844 70.257812 38.050781 C 70.339844 37.3125 70.429688 36.574219 70.519531 35.832031 C 70.082031 35.433594 69.578125 35.097656 69.128906 34.816406 C 68.503906 34.421875 67.796875 34.035156 66.964844 33.628906 C 65.578125 32.957031 64.003906 32.351562 62.28125 31.824219 C 61.988281 31.738281 61.695312 31.652344 61.398438 31.566406 C 61.339844 31.554688 61.234375 31.53125 61.132812 31.488281 L 60.96875 31.4375 L 60.984375 31.382812 C 60.910156 31.308594 60.863281 31.203125 60.875 31.054688 L 61.054688 31.070312 L 61.058594 31.042969 L 60.878906 31.023438 C 62.082031 21.460938 63.257812 17.882812 63.710938 16.785156 L 64.507812 17.042969 C 64.066406 18.886719 63.417969 28.402344 63.273438 31.015625 C 64.378906 31.242188 65.378906 31.484375 66.296875 31.75 C 68.574219 23.429688 70.738281 22.023438 70.828125 21.96875 L 71.402344 22.546875 C 71.382812 22.582031 69.15625 26.175781 68.125 32.339844 C 68.90625 32.628906 69.625 32.933594 70.3125 33.273438 C 70.535156 33.386719 70.738281 33.496094 70.933594 33.601562 L 71.304688 32.371094 C 71.546875 31.566406 72.675781 27.929688 72.992188 26.914062 C 73.214844 26.1875 74.011719 23.664062 74.441406 22.3125 L 74.65625 21.636719 C 74.941406 20.722656 75.535156 18.875 75.671875 18.4375 C 75.609375 18.03125 75.46875 17.589844 75.230469 17.050781 C 74.984375 16.5 74.664062 15.949219 74.273438 15.417969 C 73.578125 14.464844 72.652344 13.566406 71.515625 12.746094 C 71.023438 12.390625 70.492188 12.050781 69.929688 11.726562 C 68.113281 10.6875 66.011719 9.855469 63.5 9.179688 C 62.863281 9.007812 62.179688 8.867188 61.417969 8.753906 C 60.5 8.621094 59.507812 8.527344 58.382812 8.464844 L 58.121094 8.449219 C 57.234375 8.410156 56.320312 8.363281 55.421875 8.34375 C 54.769531 8.328125 54.117188 8.316406 53.464844 8.316406 C 51.285156 8.316406 49.394531 8.429688 47.675781 8.660156 C 46 8.886719 44.414062 9.246094 42.972656 9.730469 C 41.828125 10.109375 40.683594 10.601562 39.5625 11.1875 L 39.214844 11.367188 C 38.421875 11.78125 37.601562 12.207031 36.917969 12.71875 C 33.574219 15.214844 32.664062 18.027344 32.503906 18.617188 L 33.832031 22.613281 C 34.199219 23.707031 35.222656 26.789062 35.367188 27.234375 L 37.253906 32.972656 C 37.871094 32.679688 38.929688 32.195312 39.410156 32.035156 C 39.996094 31.839844 40.5 31.679688 40.96875 31.542969 C 40.519531 29.214844 39.179688 23.03125 36.980469 19.304688 L 37.558594 18.734375 C 37.675781 18.800781 40.328125 20.53125 43.070312 31.035156 C 43.777344 30.914062 45.222656 30.683594 45.929688 30.574219 C 45.695312 26.125 45.335938 20.714844 45.050781 19.480469 Z M 45.050781 19.480469 " fill-opacity="1" fill-rule="nonzero"/></g><g fill="#577590" fill-opacity="1"><g transform="translate(6.951197, 105.38191)"><g><path d="M 7.125 -7.546875 L 2.671875 -7.546875 L 2.671875 -4.984375 L 6.703125 -4.984375 L 6.703125 -3.640625 L 2.671875 -3.640625 L 2.671875 0 L 1.171875 0 L 1.171875 -8.890625 L 7.140625 -8.890625 Z M 7.125 -7.546875 "/></g></g></g><g fill="#577590" fill-opacity="1"><g transform="translate(14.254995, 105.38191)"><g><path d="M 2.546875 -6.765625 L 2.546875 -5.40625 C 3.003906 -6.34375 3.78125 -6.8125 4.875 -6.8125 L 4.875 -5.40625 C 4.207031 -5.445312 3.664062 -5.289062 3.25 -4.9375 C 2.832031 -4.59375 2.597656 -4.125 2.546875 -3.53125 L 2.546875 0 L 1.078125 0 L 1.078125 -6.765625 Z M 2.546875 -6.765625 "/></g></g></g><g fill="#577590" fill-opacity="1"><g transform="translate(19.259685, 105.38191)"><g><path d="M 1.1875 -9.328125 C 1.351562 -9.492188 1.554688 -9.578125 1.796875 -9.578125 C 2.046875 -9.578125 2.25 -9.492188 2.40625 -9.328125 C 2.570312 -9.160156 2.65625 -8.945312 2.65625 -8.6875 C 2.65625 -8.4375 2.570312 -8.226562 2.40625 -8.0625 C 2.25 -7.894531 2.046875 -7.8125 1.796875 -7.8125 C 1.554688 -7.8125 1.351562 -7.894531 1.1875 -8.0625 C 1.03125 -8.226562 0.953125 -8.4375 0.953125 -8.6875 C 0.953125 -8.945312 1.03125 -9.160156 1.1875 -9.328125 Z M 2.53125 0 L 1.078125 0 L 1.078125 -6.765625 L 2.53125 -6.765625 Z M 2.53125 0 "/></g></g></g><g fill="#577590" fill-opacity="1"><g transform="translate(22.867125, 105.38191)"><g><path d="M 7.515625 -9.421875 L 7.515625 0 L 6.0625 0 L 6.0625 -1.15625 C 5.5625 -0.34375 4.769531 0.0625 3.6875 0.0625 C 2.71875 0.0625 1.929688 -0.253906 1.328125 -0.890625 C 0.734375 -1.535156 0.4375 -2.375 0.4375 -3.40625 C 0.4375 -4.414062 0.734375 -5.238281 1.328125 -5.875 C 1.921875 -6.507812 2.695312 -6.828125 3.65625 -6.828125 C 4.738281 -6.828125 5.539062 -6.414062 6.0625 -5.59375 L 6.0625 -9.421875 Z M 2.5 -1.765625 C 2.882812 -1.359375 3.378906 -1.15625 3.984375 -1.15625 C 4.597656 -1.15625 5.097656 -1.359375 5.484375 -1.765625 C 5.867188 -2.179688 6.0625 -2.710938 6.0625 -3.359375 C 6.0625 -4.003906 5.867188 -4.535156 5.484375 -4.953125 C 5.097656 -5.367188 4.597656 -5.578125 3.984375 -5.578125 C 3.378906 -5.578125 2.882812 -5.367188 2.5 -4.953125 C 2.113281 -4.535156 1.914062 -4.003906 1.90625 -3.359375 C 1.914062 -2.710938 2.113281 -2.179688 2.5 -1.765625 Z M 2.5 -1.765625 "/></g></g></g><g fill="#577590" fill-opacity="1"><g transform="translate(31.530063, 105.38191)"><g><path d="M 7.171875 -6.765625 L 7.171875 -0.65625 C 7.171875 0.300781 6.851562 1.066406 6.21875 1.640625 C 5.582031 2.210938 4.734375 2.5 3.671875 2.5 C 2.671875 2.5 1.734375 2.203125 0.859375 1.609375 L 1.484375 0.5625 C 2.148438 1.050781 2.859375 1.296875 3.609375 1.296875 C 4.253906 1.296875 4.769531 1.117188 5.15625 0.765625 C 5.539062 0.421875 5.734375 -0.0390625 5.734375 -0.625 L 5.734375 -1.46875 C 5.253906 -0.707031 4.507812 -0.328125 3.5 -0.328125 C 2.582031 -0.328125 1.84375 -0.628906 1.28125 -1.234375 C 0.71875 -1.835938 0.4375 -2.625 0.4375 -3.59375 C 0.4375 -4.550781 0.710938 -5.320312 1.265625 -5.90625 C 1.816406 -6.5 2.539062 -6.800781 3.4375 -6.8125 C 4.476562 -6.820312 5.242188 -6.441406 5.734375 -5.671875 L 5.734375 -6.765625 Z M 3.78125 -1.46875 C 4.351562 -1.46875 4.820312 -1.660156 5.1875 -2.046875 C 5.550781 -2.441406 5.734375 -2.941406 5.734375 -3.546875 C 5.734375 -4.160156 5.550781 -4.660156 5.1875 -5.046875 C 4.832031 -5.429688 4.363281 -5.625 3.78125 -5.625 C 3.207031 -5.625 2.738281 -5.429688 2.375 -5.046875 C 2.007812 -4.660156 1.820312 -4.164062 1.8125 -3.5625 C 1.820312 -2.945312 2.003906 -2.441406 2.359375 -2.046875 C 2.722656 -1.660156 3.195312 -1.46875 3.78125 -1.46875 Z M 3.78125 -1.46875 "/></g></g></g><g fill="#577590" fill-opacity="1"><g transform="translate(39.659508, 105.38191)"><g><path d="M 3.859375 -6.8125 C 5.023438 -6.8125 5.867188 -6.460938 6.390625 -5.765625 C 6.910156 -5.066406 7.125 -4.082031 7.03125 -2.8125 L 1.921875 -2.8125 C 2.035156 -2.289062 2.28125 -1.878906 2.65625 -1.578125 C 3.03125 -1.273438 3.484375 -1.125 4.015625 -1.125 C 4.773438 -1.125 5.410156 -1.390625 5.921875 -1.921875 L 6.6875 -1.09375 C 6 -0.332031 5.070312 0.046875 3.90625 0.046875 C 2.863281 0.046875 2.023438 -0.265625 1.390625 -0.890625 C 0.753906 -1.523438 0.4375 -2.347656 0.4375 -3.359375 C 0.4375 -4.378906 0.753906 -5.207031 1.390625 -5.84375 C 2.023438 -6.476562 2.847656 -6.800781 3.859375 -6.8125 Z M 1.890625 -3.890625 L 5.75 -3.890625 C 5.726562 -4.429688 5.546875 -4.859375 5.203125 -5.171875 C 4.867188 -5.484375 4.425781 -5.640625 3.875 -5.640625 C 3.34375 -5.640625 2.898438 -5.484375 2.546875 -5.171875 C 2.191406 -4.859375 1.972656 -4.429688 1.890625 -3.890625 Z M 1.890625 -3.890625 "/></g></g></g><g fill="#577590" fill-opacity="1"><g transform="translate(47.128437, 105.38191)"><g/></g></g><g fill="#577590" fill-opacity="1"><g transform="translate(50.405621, 105.38191)"><g><path d="M 7.25 -4.375 L 8.5625 -4.375 L 8.5625 -1.09375 C 8.101562 -0.75 7.5625 -0.46875 6.9375 -0.25 C 6.320312 -0.0390625 5.710938 0.0625 5.109375 0.0625 C 3.796875 0.0625 2.6875 -0.367188 1.78125 -1.234375 C 0.882812 -2.109375 0.4375 -3.179688 0.4375 -4.453125 C 0.4375 -5.722656 0.890625 -6.785156 1.796875 -7.640625 C 2.710938 -8.503906 3.847656 -8.9375 5.203125 -8.9375 C 5.828125 -8.9375 6.441406 -8.820312 7.046875 -8.59375 C 7.648438 -8.363281 8.171875 -8.0625 8.609375 -7.6875 L 7.765625 -6.578125 C 7.035156 -7.253906 6.179688 -7.59375 5.203125 -7.59375 C 4.296875 -7.59375 3.523438 -7.285156 2.890625 -6.671875 C 2.265625 -6.066406 1.953125 -5.328125 1.953125 -4.453125 C 1.953125 -3.554688 2.265625 -2.800781 2.890625 -2.1875 C 3.523438 -1.582031 4.296875 -1.28125 5.203125 -1.28125 C 5.890625 -1.28125 6.570312 -1.484375 7.25 -1.890625 Z M 7.25 -4.375 "/></g></g></g><g fill="#577590" fill-opacity="1"><g transform="translate(59.919613, 105.38191)"><g><path d="M 3.96875 -6.8125 C 5.007812 -6.8125 5.859375 -6.492188 6.515625 -5.859375 C 7.171875 -5.234375 7.5 -4.40625 7.5 -3.375 C 7.5 -2.363281 7.171875 -1.539062 6.515625 -0.90625 C 5.859375 -0.269531 5.007812 0.046875 3.96875 0.046875 C 2.925781 0.046875 2.078125 -0.269531 1.421875 -0.90625 C 0.765625 -1.539062 0.4375 -2.363281 0.4375 -3.375 C 0.4375 -4.40625 0.765625 -5.234375 1.421875 -5.859375 C 2.078125 -6.492188 2.925781 -6.8125 3.96875 -6.8125 Z M 3.96875 -5.546875 C 3.363281 -5.546875 2.867188 -5.34375 2.484375 -4.9375 C 2.097656 -4.53125 1.90625 -4.003906 1.90625 -3.359375 C 1.90625 -2.710938 2.097656 -2.1875 2.484375 -1.78125 C 2.867188 -1.375 3.363281 -1.171875 3.96875 -1.171875 C 4.582031 -1.171875 5.078125 -1.375 5.453125 -1.78125 C 5.835938 -2.1875 6.03125 -2.710938 6.03125 -3.359375 C 6.03125 -4.003906 5.835938 -4.53125 5.453125 -4.9375 C 5.066406 -5.34375 4.570312 -5.546875 3.96875 -5.546875 Z M 3.96875 -5.546875 "/></g></g></g><g fill="#577590" fill-opacity="1"><g transform="translate(67.858524, 105.38191)"><g><path d="M 7.21875 -6.765625 L 7.21875 0 L 5.75 0 L 5.75 -1.328125 C 5.3125 -0.421875 4.507812 0.0351562 3.34375 0.046875 C 2.570312 0.046875 1.960938 -0.179688 1.515625 -0.640625 C 1.078125 -1.109375 0.859375 -1.742188 0.859375 -2.546875 L 0.859375 -6.765625 L 2.328125 -6.765625 L 2.328125 -2.953125 C 2.328125 -2.453125 2.460938 -2.054688 2.734375 -1.765625 C 3.015625 -1.472656 3.40625 -1.328125 3.90625 -1.328125 C 4.46875 -1.328125 4.914062 -1.523438 5.25 -1.921875 C 5.582031 -2.316406 5.75 -2.820312 5.75 -3.4375 L 5.75 -6.765625 Z M 7.21875 -6.765625 "/></g></g></g><g fill="#577590" fill-opacity="1"><g transform="translate(76.153094, 105.38191)"><g><path d="M 2.546875 -6.765625 L 2.546875 -5.40625 C 3.003906 -6.34375 3.78125 -6.8125 4.875 -6.8125 L 4.875 -5.40625 C 4.207031 -5.445312 3.664062 -5.289062 3.25 -4.9375 C 2.832031 -4.59375 2.597656 -4.125 2.546875 -3.53125 L 2.546875 0 L 1.078125 0 L 1.078125 -6.765625 Z M 2.546875 -6.765625 "/></g></g></g><g fill="#577590" fill-opacity="1"><g transform="translate(81.157784, 105.38191)"><g><path d="M 9.890625 -6.8125 C 10.660156 -6.8125 11.265625 -6.578125 11.703125 -6.109375 C 12.148438 -5.640625 12.375 -5.003906 12.375 -4.203125 L 12.375 0 L 10.90625 0 L 10.90625 -3.796875 C 10.90625 -4.316406 10.765625 -4.722656 10.484375 -5.015625 C 10.203125 -5.304688 9.8125 -5.453125 9.3125 -5.453125 C 8.738281 -5.429688 8.285156 -5.222656 7.953125 -4.828125 C 7.617188 -4.441406 7.453125 -3.945312 7.453125 -3.34375 L 7.453125 0 L 6 0 L 6 -3.796875 C 6 -4.316406 5.851562 -4.722656 5.5625 -5.015625 C 5.28125 -5.304688 4.894531 -5.453125 4.40625 -5.453125 C 3.832031 -5.429688 3.375 -5.222656 3.03125 -4.828125 C 2.695312 -4.441406 2.53125 -3.945312 2.53125 -3.34375 L 2.53125 0 L 1.078125 0 L 1.078125 -6.765625 L 2.53125 -6.765625 L 2.53125 -5.453125 C 2.976562 -6.359375 3.796875 -6.8125 4.984375 -6.8125 C 5.578125 -6.8125 6.078125 -6.664062 6.484375 -6.375 C 6.890625 -6.09375 7.171875 -5.695312 7.328125 -5.1875 C 7.742188 -6.269531 8.597656 -6.8125 9.890625 -6.8125 Z M 9.890625 -6.8125 "/></g></g></g><g fill="#577590" fill-opacity="1"><g transform="translate(94.406238, 105.38191)"><g><path d="M 3.859375 -6.8125 C 5.023438 -6.8125 5.867188 -6.460938 6.390625 -5.765625 C 6.910156 -5.066406 7.125 -4.082031 7.03125 -2.8125 L 1.921875 -2.8125 C 2.035156 -2.289062 2.28125 -1.878906 2.65625 -1.578125 C 3.03125 -1.273438 3.484375 -1.125 4.015625 -1.125 C 4.773438 -1.125 5.410156 -1.390625 5.921875 -1.921875 L 6.6875 -1.09375 C 6 -0.332031 5.070312 0.046875 3.90625 0.046875 C 2.863281 0.046875 2.023438 -0.265625 1.390625 -0.890625 C 0.753906 -1.523438 0.4375 -2.347656 0.4375 -3.359375 C 0.4375 -4.378906 0.753906 -5.207031 1.390625 -5.84375 C 2.023438 -6.476562 2.847656 -6.800781 3.859375 -6.8125 Z M 1.890625 -3.890625 L 5.75 -3.890625 C 5.726562 -4.429688 5.546875 -4.859375 5.203125 -5.171875 C 4.867188 -5.484375 4.425781 -5.640625 3.875 -5.640625 C 3.34375 -5.640625 2.898438 -5.484375 2.546875 -5.171875 C 2.191406 -4.859375 1.972656 -4.429688 1.890625 -3.890625 Z M 1.890625 -3.890625 "/></g></g></g><g fill="#577590" fill-opacity="1"><g transform="translate(101.875171, 105.38191)"><g><path d="M 4.53125 -1.546875 L 4.90625 -0.4375 C 4.34375 -0.101562 3.785156 0.0625 3.234375 0.0625 C 2.679688 0.0625 2.226562 -0.0976562 1.875 -0.421875 C 1.519531 -0.753906 1.34375 -1.25 1.34375 -1.90625 L 1.34375 -5.40625 L 0.390625 -5.40625 L 0.390625 -6.5 L 1.34375 -6.5 L 1.34375 -8.359375 L 2.796875 -8.359375 L 2.796875 -6.5 L 4.796875 -6.5 L 4.796875 -5.40625 L 2.796875 -5.40625 L 2.796875 -2.171875 C 2.796875 -1.835938 2.851562 -1.597656 2.96875 -1.453125 C 3.09375 -1.316406 3.273438 -1.25 3.515625 -1.25 C 3.785156 -1.25 4.125 -1.347656 4.53125 -1.546875 Z M 4.53125 -1.546875 "/></g></g></g></svg>